<?xml version="1.0" encoding="UTF-8"?>
<svg id="Layer_2" data-name="Layer 2" xmlns="http://www.w3.org/2000/svg" viewBox="0 0 260.25 227.06">
  <defs>
    <style>
      .cls-1 {
        fill: #e6e6e6;
      }

      .cls-1, .cls-2 {
        stroke-width: 0px;
      }

      .cls-3 {
        fill: #fff;
        stroke: #fff;
        stroke-miterlimit: 10;
        stroke-width: 1.05px;
      }

      .cls-2 {
        fill: #bb4a42;
      }
    </style>
  </defs>
  <g id="Layer_1-2" data-name="Layer 1">
    <rect class="cls-1" width="260.25" height="227.06" rx="35.24" ry="35.24"/>
    <circle class="cls-2" cx="130.12" cy="113.53" r="79.22"/>
    <g>
      <path class="cls-3" d="M127.04,132.27c0,5.72-1.32,10.08-3.95,13.07-2.64,2.99-6.72,4.48-12.25,4.48-5.21,0-9.15-1.46-11.82-4.39-2.67-2.93-4-7.12-4-12.59v-1.74h10.03v2.41c0,2.44.5,4.16,1.49,5.16,1,1,2.33,1.5,4,1.5,1.86,0,3.31-.58,4.34-1.74,1.03-1.16,1.54-3.34,1.54-6.56v-12.35c-1.87,3.99-5.15,5.98-9.84,5.98-3.92,0-6.86-1.32-8.83-3.95-1.96-2.64-2.94-6.46-2.94-11.48v-12.35c0-5.46,1.38-9.66,4.15-12.59,2.76-2.93,6.75-4.39,11.96-4.39s9.19,1.46,11.96,4.39c2.76,2.93,4.15,7.12,4.15,12.59v34.53ZM110.93,115.87c1.67,0,3.01-.5,4-1.49,1-1,1.49-2.72,1.49-5.16v-12.15c0-2.44-.5-4.15-1.49-5.11-1-.96-2.33-1.45-4-1.45s-3.01.48-4,1.45c-1,.96-1.5,2.67-1.5,5.11v12.15c0,2.44.5,4.16,1.5,5.16,1,1,2.33,1.49,4,1.49Z"/>
      <path class="cls-3" d="M133.21,97.74c0-5.46,1.38-9.66,4.15-12.59,2.76-2.93,6.75-4.39,11.96-4.39s9.19,1.46,11.96,4.39c2.76,2.93,4.15,7.12,4.15,12.59v35.11c0,5.47-1.38,9.66-4.15,12.59-2.77,2.93-6.75,4.39-11.96,4.39s-9.2-1.46-11.96-4.39c-2.77-2.93-4.15-7.12-4.15-12.59v-35.11ZM143.82,133.52c0,2.44.5,4.16,1.5,5.16,1,1,2.33,1.5,4,1.5s3.01-.5,4-1.5c1-1,1.49-2.72,1.49-5.16v-36.46c0-2.44-.5-4.16-1.49-5.16-1-1-2.33-1.5-4-1.5s-3.01.5-4,1.5c-1,1-1.5,2.72-1.5,5.16v36.46Z"/>
    </g>
  </g>
</svg>