<?xml version="1.0" encoding="UTF-8"?>
<svg id="Layer_2" data-name="Layer 2" xmlns="http://www.w3.org/2000/svg" viewBox="0 0 108.87 110.91">
  <defs>
    <style>
      .cls-1 {
        fill: #fff;
        stroke-width: 0px;
      }
    </style>
  </defs>
  <g id="Layer_1-2" data-name="Layer 1">
    <g>
      <path class="cls-1" d="M89.46,33.72l-3.24-1.56-.13-6.81.85-1.68,3.71-2.63c-3.3-3.95-6.7-9.1-9.26-15.54l-.75-1.87,3.74-1.49.75,1.87c2.43,6.08,5.7,10.96,8.84,14.67l3.13-2.22-5.49-12.85,3.71-1.58,6.13,14.34-.69,2.43-4.05,2.88c4.02,4.1,7.28,6.1,7.34,6.14l-1.39,3.71c-.08-.01-8.46-1.43-13.2,2.2ZM90.34,26.39l.1,2.38c2.14-.94,4.44-1.39,6.5-1.59-1.06-.89-2.23-1.94-3.45-3.15l-3.16,2.36Z"/>
      <path class="cls-1" d="M78.66,9.93c-1.28-1.66-2.48-2.28-3.36-2.42h-.1c-2.75-.46-6.8-.06-10.05,8.45-.52,1.37-.59,2.85-.18,4.17.48,1.56,1.5,2.78,2.96,3.53,2.26,1.17,5.24,1.04,7.51.67.07-.01.14-.02.2-.03-.01.01-.03.03-.05.04-1.94,1.59-11.8,5.51-17.64-.34-2.22-2.21-3.78-5.67-3.8-5.71h-3.55c-.03.08-3.39,8.55-9.67,8.41-2.1,0-7.91-2.51-7.91-9.09l-.06-16.74-3.44.02s0,15.13-.03,22.79c0,1.94-1.7,3.45-3.65,3.46h-13.94s-.06,0-.06,0c-2.9,0-4.89-.84-6.25-2.43-3.27-3.81-1.3-11.62-1.3-11.62H.64c-.08.33-2.2,9.12,1.77,14.12,2.08,2.62,5.24,3.95,9.39,3.96h13.95s.06,0,.06,0c3.19,0,6.05-1.7,7.21-4.49,1.42,2.3,4.02,4.47,8.13,4.47,5.38,0,9.2-5.17,11.25-8.07.79,1.25,3.29,5.84,6.8,6.91,13.27,4.04,19.52-2.93,21.3-6.32.16-.29.28-.56.36-.79.56-1.46.79-2.92.78-4.34-.03-3.52-1.53-6.73-2.98-8.62ZM69.78,19.91c-.5-.25-.8-.6-.97-1.12-.15-.47-.12-1.02.08-1.55,1.38-3.73,2.73-5.15,3.62-5.69h.02c.91-.55,2.09-.26,2.68.62.44.66.99,1.67,1.34,3.09.35,1.41.54,2.93.56,4.32h0s-.03.02-.04.02c-2.06.63-5.55,1.2-7.3.31Z"/>
      <path class="cls-1" d="M10.45,20.35v-2.94s2.78-.01,2.78-.01l.04-1.66,3.31-5.21,3.4,2.16-2.27,3.58c1.32.47,3.58.92,5.7,1.09l-.17,2.93-12.78.06Z"/>
      <circle class="cls-1" cx="73.37" cy="2.57" r="2.57"/>
      <path class="cls-1" d="M71.02,70.57l-3.01-1.61-.4-5.91.96-1.85,6.72-4.12c-1.92-2.91-3.89-6.4-5.71-10.52l-.81-1.84,3.69-1.63.81,1.84c1.74,3.94,3.64,7.27,5.47,10.03l1.88-1.15-3.51-15.39,3.93-.9,3.83,16.8-.91,2.17-2.88,1.76c3.72,4.87,6.7,7.17,6.75,7.21l-1.55,3.59c-.1-.02-9.86-1.58-15.26,1.51ZM71.71,63.99l.13,1.85c3.05-1,6.47-1.25,9.29-1.21-1.06-1.16-2.25-2.57-3.52-4.25l-5.9,3.61Z"/>
      <path class="cls-1" d="M88.15,75.05l-.38-4.01,2.01-.19c7.55-.71,10.8-5.42,11.49-10.06-2.1.66-4.75.95-7.99.34-2.42-.45-4.14-1.44-5.1-2.92-.82-1.27-1.04-2.86-.62-4.57.66-2.73,2.77-4.77,5.44-5.93,1.77-.77,4.08-.63,4.08-.63,3.51.1,6.35,2.8,7.64,6.87l1.37-1.31,2.79,2.91-1.6,1.53c-.39.38-.99.96-1.84,1.59.08,7.45-4.55,15.2-15.28,16.2l-2.01.19ZM94.36,51.5c-1.45.59-2.55,1.69-2.89,3.09-.15.62-.12,1.1.09,1.43.33.51,1.2.91,2.46,1.15,3.16.59,5.49.12,7.19-.66-.53-2.87-2.59-6.74-6.84-5.02Z"/>
      <circle class="cls-1" cx="59.12" cy="37.67" r="2.57"/>
      <circle class="cls-1" cx="55.01" cy="31.08" r="2.57"/>
      <circle class="cls-1" cx="49.87" cy="31.08" r="2.57"/>
      <circle class="cls-1" cx="20.5" cy="77.81" r="2.57"/>
      <circle class="cls-1" cx="15.36" cy="77.81" r="2.57"/>
      <g>
        <circle class="cls-1" cx="26.19" cy="108.34" r="2.57"/>
        <circle class="cls-1" cx="21.05" cy="108.34" r="2.57"/>
      </g>
      <path class="cls-1" d="M55.31,64.21l1.01-.06c2.04-.12,4-.48,5.83-1.08,2.21-.72,4.35-1.82,5.1-4.97,1-4.22,0-10.51-2.2-13.74-1.18-1.74-2.5-2.26-3.39-2.39l-.09-.02c-2.76-.41-6.8.02-9.97,8.56-.51,1.38-.56,2.86-.14,4.18.49,1.55,1.53,2.76,2.99,3.5,2.34,1.18,5.41.98,7.69.56-.31.16-.71.32-1.24.49-6.59,2.12-14.28.04-16.61-3.05l-.05-.07c-.58-.76-1.24-1.71-1.97-2.83-.33-.5-.72-.95-1.18-1.35-1.82-1.57-4.57-2.04-6.84-1.18-1.8.68-2.98,2.11-3.23,3.91-.27,1.95-.16,3.51-.06,5.03.12,1.75.22,3.27-.26,5.32l-.02.12c-.08.44-.88,4.34-5.03,4.34-.56,0-8.88.08-11.14.06-3.36-.02-6.21-1.41-8.04-4.08-2.11-3.09-2.5-7.22-1.04-11.05.64-1.68,2.35-2.77,4.25-2.72,2.25.07,4.03,1.65,4.87,4.33l.61,1.92,3.84-1.21-.61-1.92c-1.36-4.29-4.65-7.03-8.6-7.15-3.61-.11-6.88,2.03-8.13,5.31-1.93,5.06-1.38,10.58,1.48,14.76,2.56,3.74,6.69,5.8,11.34,5.84,2.27.02,10.63-.06,11.16-.06,6.09,0,8.53-4.96,8.99-7.65.6-2.61.46-4.65.34-6.44-.09-1.37-.18-2.66.03-4.2.02-.14.07-.47.67-.7.87-.33,2.1-.12,2.79.47.17.14.31.31.43.49.79,1.21,1.51,2.24,2.14,3.07l.04.06c3.36,4.46,6.95,5.94,14.24,5.59M55.23,64.21h.08M56.25,54.59c-.5-.25-.8-.6-.97-1.12-.15-.47-.12-1.02.08-1.55,1.38-3.73,2.73-5.15,3.62-5.69,0,0,.02,0,.02-.01.91-.54,2.09-.25,2.68.63.44.66.98,1.68,1.33,3.09.35,1.41.54,2.93.56,4.33-2.05.63-5.57,1.22-7.33.33Z"/>
      <rect class="cls-1" x="101.14" y="76.49" width="4.09" height="27.41"/>
      <path class="cls-1" d="M96.75,76.1v21.04c0,2.77-1.49,4.97-3.99,5.88-.81.3-1.67.44-2.54.44-1.94,0-3.94-.72-5.65-2.05-1.91,1.45-4.81,2.22-8.77,2.4l-1,.05c-1.7.08-3.66.18-5.72.18-4.99,0-10.58-.56-14.56-3.2-1.32,2.16-4.17,2.72-6.53,2.98-.79.08-2.06.12-3.47.12-3.28,0-7.33-.17-7.95-.19l.17-4.09c2.34.1,8.83.31,10.81.1,2.85-.31,3.39-.89,3.48-1.06.15-.26.09-1.03-.5-2.35-.03-.06-.06-.13-.09-.19,0,0,0-.01,0-.02-.12-.24-.23-.51-.36-.8-.79-1.75-1.97-4.4-3.72-4.8-1.47-.34-3.38.92-4.71,2.04l-2.62-3.15c2.98-2.49,5.76-3.46,8.26-2.88,3.74.86,5.49,4.78,6.54,7.12.12.27.23.51.33.73,0,0,0,.01,0,.01,2.88,6.22,13.88,5.68,20.45,5.36l1.01-.05c7.79-.35,7.79-2.87,7.79-5.1,0-2.13-1.56-4.7-3.69-6.11-1.17-.77-3-1.5-5.08-.62-3.99,1.69-5.49,5.82-5.5,5.86l-3.87-1.34c.08-.24,2.07-5.87,7.78-8.29,2.92-1.24,6.1-.9,8.93.97,3.29,2.17,5.51,6,5.53,9.52,0,1.3-.17,2.46-.52,3.47,1.51,1.22,3.24,1.5,4.37,1.08.87-.32,1.31-1.01,1.31-2.04v-21.04h4.09Z"/>
      <path class="cls-1" d="M31.43,101.58c-.92,1.11-2.61,2.39-5.51,2.39-.19,0-.39,0-.59-.01-2.87-.16-5.39-.72-7.63-2.39-1.26,1.59-3.63,2.1-6.75,2.33-.7.06-1.88.07-3.2.07-3.23,0-7.34-.12-7.58-.12l.12-4.09c2.26.06,8.53.2,10.35.06,2.99-.23,3.7-.67,3.86-.8.01-.15,0-.71-.77-2.24,0-.01,0-.02-.01-.03-.09-.19-.2-.38-.32-.6-.11-.2-.22-.42-.35-.66-.91-1.71-2.28-4.31-4.25-4.69-1.65-.32-3.63.97-5,2.11l-2.62-3.15c2.99-2.49,5.82-3.5,8.42-2.99,3.88.76,5.88,4.54,7.07,6.8.12.22.22.42.32.6.1.19.21.39.31.58,0,.01.01.03.02.04,2.25,4.04,4.46,4.85,8.26,5.07,1.69.1,2.35-.46,2.71-.89,1.57-1.89.91-6.39.55-7.82l3.97-.99c.19.77,1.79,7.61-1.37,11.42Z"/>
    </g>
  </g>
</svg>