<?xml version="1.0" encoding="UTF-8"?>
<svg id="Layer_2" data-name="Layer 2" xmlns="http://www.w3.org/2000/svg" viewBox="0 0 260.25 227.06">
  <defs>
    <style>
      .cls-1 {
        fill: #e6e6e6;
      }

      .cls-1, .cls-2, .cls-3 {
        stroke-width: 0px;
      }

      .cls-2 {
        fill: #4b9243;
      }

      .cls-3 {
        fill: #fff;
      }
    </style>
  </defs>
  <g id="Layer_1-2" data-name="Layer 1">
    <rect class="cls-1" width="260.25" height="227.06" rx="35.24" ry="35.24"/>
    <circle class="cls-2" cx="130.12" cy="113.79" r="79.22"/>
    <g>
      <rect class="cls-3" x="65.3" y="96.36" width="23.66" height="28.1" rx=".58" ry=".58"/>
      <rect class="cls-3" x="173.5" y="96.36" width="21.44" height="28.1" rx=".58" ry=".58"/>
      <rect class="cls-3" x="104.49" y="96.85" width="21.69" height="27.61" rx="2.32" ry="2.32"/>
      <rect class="cls-2" x="111.39" y="102.77" width="9.37" height="15.53"/>
      <rect class="cls-3" x="133.08" y="90.94" width="38.45" height="39.19" rx="3.92" ry="3.92"/>
      <rect class="cls-2" x="142.45" y="101.29" width="18.49" height="17.99"/>
      <polygon class="cls-3" points="125.96 151.56 101.1 141.23 101.03 148.34 75.73 148.1 75.66 155.04 100.97 155.28 100.91 161.42 125.96 151.56"/>
      <polygon class="cls-3" points="125.96 151.56 101.1 141.23 101.03 148.34 75.73 148.1 75.66 155.04 100.97 155.28 100.91 161.42 125.96 151.56"/>
      <polygon class="cls-3" points="132.31 151.56 157.18 141.23 157.24 148.34 182.55 148.1 182.61 155.04 157.3 155.28 157.36 161.42 132.31 151.56"/>
      <rect class="cls-3" x="145.16" y="103.93" width="13.06" height="12.71"/>
      <path class="cls-3" d="M85.41,91.38v37.96h16.51l7.15-7.15s-6.16-16.02,0-21.94l1.48-1.23-8.63-7.64h-16.51Z"/>
      <rect class="cls-2" x="88.74" y="95.13" width="2.66" height="30.46"/>
    </g>
  </g>
</svg>