<?xml version="1.0" encoding="UTF-8"?>
<svg id="Layer_2" data-name="Layer 2" xmlns="http://www.w3.org/2000/svg" viewBox="0 0 260.25 227.06">
  <defs>
    <style>
      .cls-1 {
        fill: #d7a036;
      }

      .cls-1, .cls-2 {
        stroke-width: 0px;
      }

      .cls-2 {
        fill: #fff;
      }
    </style>
  </defs>
  <g id="Layer_1-2" data-name="Layer 1">
    <rect class="cls-2" width="260.25" height="227.06" rx="35.24" ry="35.24"/>
    <g>
      <path class="cls-1" d="M68.57,186.88c-7.56,0-14.34-3.91-18.12-10.46-3.78-6.55-3.78-14.37,0-20.92l60.54-104.86c3.78-6.55,10.55-10.46,18.12-10.46s14.34,3.91,18.12,10.46l60.54,104.86c3.78,6.55,3.78,14.37,0,20.92-3.78,6.55-10.55,10.46-18.12,10.46h-121.08Z"/>
      <path class="cls-2" d="M68.57,180.11c-5.11,0-9.69-2.64-12.25-7.07-2.56-4.43-2.56-9.72,0-14.14l60.54-104.86c2.56-4.43,7.14-7.07,12.25-7.07s9.69,2.64,12.25,7.07l60.54,104.86c2.56,4.43,2.56,9.72,0,14.14-2.56,4.43-7.14,7.07-12.25,7.07h-121.08Z"/>
      <path class="cls-1" d="M60.49,161.3l60.54-104.86c3.59-6.22,12.57-6.22,16.16,0l60.54,104.86c3.59,6.22-.9,13.99-8.08,13.99h-121.08c-7.18,0-11.67-7.77-8.08-13.99Z"/>
    </g>
    <path class="cls-2" d="M123.47,135.58l-3.95-37.85c-.59-5.63,3.83-10.53,9.49-10.53h.21c5.66,0,10.07,4.9,9.49,10.52l-3.92,37.85c-.3,2.88-2.72,5.06-5.61,5.06h-.1c-2.89,0-5.31-2.18-5.61-5.06ZM120.37,154.71v-.18c0-4.81,3.9-8.71,8.71-8.71h.18c4.81,0,8.71,3.9,8.71,8.71v.18c0,4.81-3.9,8.71-8.71,8.71h-.18c-4.81,0-8.71-3.9-8.71-8.71Z"/>
  </g>
</svg>