<?xml version="1.0" encoding="UTF-8"?>
<svg id="Layer_2" data-name="Layer 2" xmlns="http://www.w3.org/2000/svg" viewBox="0 0 294.9 101.79">
  <defs>
    <style>
      .cls-1 {
        fill: #fff;
        stroke-width: 0px;
      }
    </style>
  </defs>
  <g id="Layer_1-2" data-name="Layer 1">
    <g>
      <path class="cls-1" d="M64.41,30.18c-1.38,0-2.58-.08-3.6-.24-1.02-.16-1.9-.39-2.64-.69-.73-.29-1.34-.65-1.81-1.06-.47-.41-.85-.86-1.12-1.36-.27-.5-.46-1.03-.57-1.6-.11-.57-.17-1.16-.17-1.77,0-.23.01-.5.04-.82s.05-.64.1-.98c.04-.34.08-.69.13-1.03.05-.35.1-.67.16-.97l4.01.35c-.08.44-.15.88-.22,1.32s-.1.88-.1,1.32c0,.68.09,1.26.27,1.73.18.47.52.85,1.03,1.15.51.3,1.22.52,2.13.65.91.13,2.09.2,3.55.2h11.02c.38,0,.71-.04.98-.12.27-.08.49-.22.66-.41.17-.19.29-.45.37-.77.08-.32.12-.73.12-1.21V5.24h4.51v19.23c0,.21,0,.41-.03.62-.02.2-.04.4-.06.6.57.23,1.18.41,1.83.52s1.33.17,2.04.17h.14c.32,0,.58.02.76.07.19.05.32.12.41.23.09.1.14.23.16.39s.03.34.03.56v1.21c0,.3-.02.54-.05.71-.03.17-.1.31-.21.4-.1.09-.24.15-.42.18-.17.03-.4.04-.68.04h-.19c-1.16,0-2.14-.13-2.96-.39-.82-.26-1.54-.61-2.16-1.03-.4.44-.91.79-1.52,1.04-.61.26-1.34.38-2.21.38h-13.74ZM72.17,16.21c-.23-.06-.49-.11-.76-.15-.28-.04-.51-.06-.71-.06-.41,0-.71.08-.93.25-.21.17-.32.43-.32.79,0,.16.04.33.11.51.08.18.19.34.36.49.16.14.36.26.6.36.24.09.52.14.86.14h1.18v2.1h-6.8v-2.1h1.61c-.2-.24-.36-.54-.48-.89-.12-.35-.18-.7-.18-1.03,0-.37.07-.72.22-1.05.14-.33.37-.62.67-.88.3-.25.68-.46,1.15-.6s1.02-.22,1.67-.22c.24,0,.53,0,.86.03.33.02.74.07,1.24.17l-.33,2.15Z"/>
      <path class="cls-1" d="M93.12,26.38c.32,0,.58.02.76.07.19.05.32.12.41.23.09.1.14.23.16.39s.03.34.03.56v1.21c0,.3-.02.54-.05.71-.03.17-.1.31-.21.4-.1.09-.24.15-.42.18-.17.03-.4.04-.68.04h-6.58c-.28,0-.5-.01-.68-.04-.17-.03-.31-.09-.42-.18-.1-.09-.17-.22-.21-.4-.04-.17-.05-.41-.05-.71v-1.21c0-.22,0-.41.03-.56s.07-.29.16-.39c.09-.1.22-.18.4-.23.18-.04.44-.07.77-.07h6.58Z"/>
      <path class="cls-1" d="M101.59,24.47c0,.21,0,.41-.03.62-.02.2-.04.4-.06.6.57.23,1.18.41,1.83.52.65.12,1.33.17,2.04.17h.14c.32,0,.58.02.76.07.18.05.32.12.41.23.09.1.14.23.16.39.02.16.03.34.03.56v1.21c0,.3-.02.54-.05.71s-.1.31-.21.4c-.1.09-.24.15-.42.18-.17.03-.4.04-.68.04h-.19c-1.16,0-2.14-.13-2.96-.39-.82-.26-1.53-.61-2.16-1.03-.4.44-.91.79-1.51,1.04-.6.26-1.34.38-2.21.38h-3.51c-.28,0-.5-.01-.68-.04-.17-.03-.31-.09-.42-.18-.1-.09-.17-.22-.21-.4s-.05-.41-.05-.71v-1.21c0-.22,0-.41.03-.56.02-.16.07-.29.16-.39.09-.1.22-.18.4-.23.18-.04.44-.07.77-.07h1.96c.38,0,.71-.04.98-.12s.49-.22.66-.41c.17-.19.29-.45.37-.77.08-.32.12-.73.12-1.21v-7.9h4.51v8.5ZM94.23,35.16c0-.31.06-.6.17-.87.12-.27.27-.5.48-.7.2-.2.44-.36.7-.48.27-.12.55-.17.87-.17s.6.06.87.17c.27.12.5.27.7.48s.36.44.48.7c.12.27.17.55.17.87s-.06.6-.17.87c-.12.27-.27.5-.48.7s-.44.36-.7.48c-.27.12-.56.17-.87.17s-.6-.06-.87-.17c-.27-.12-.5-.27-.7-.48-.2-.2-.36-.44-.48-.7-.12-.27-.17-.55-.17-.87ZM99.44,35.16c0-.31.06-.6.17-.87.12-.27.27-.5.48-.7s.44-.36.7-.48c.27-.12.56-.17.87-.17s.6.06.87.17c.27.12.5.27.7.48.2.2.36.44.48.7.12.27.17.55.17.87s-.06.6-.17.87c-.12.27-.28.5-.48.7-.2.2-.44.36-.7.48-.27.12-.55.17-.87.17s-.6-.06-.87-.17-.5-.27-.7-.48-.36-.44-.48-.7c-.12-.27-.17-.55-.17-.87Z"/>
      <path class="cls-1" d="M119.81,19.68c-.18-.06-.42-.12-.7-.2-.28-.08-.59-.15-.92-.22-.33-.07-.67-.13-1.03-.17-.36-.05-.71-.07-1.04-.07-.37,0-.75.05-1.15.16-.39.1-.75.28-1.08.53-.33.25-.6.59-.81,1.02s-.31.97-.31,1.61c0,.59.1,1.13.29,1.62.19.49.46.92.82,1.28.35.36.77.64,1.26.84.49.2,1.02.3,1.61.3h4.93v3.8h-16.28c-.28,0-.5-.01-.68-.04-.17-.03-.31-.09-.42-.18-.1-.09-.17-.22-.21-.4s-.05-.41-.05-.71v-1.21c0-.22,0-.41.03-.56.02-.16.07-.29.16-.39.09-.1.22-.18.4-.23.18-.04.44-.07.77-.07h3.85c-.1-.28-.2-.58-.29-.89s-.17-.64-.24-.96-.12-.64-.17-.94c-.04-.3-.06-.58-.06-.83,0-1.03.19-2.01.56-2.93s.9-1.74,1.58-2.43c.68-.69,1.49-1.24,2.43-1.65.94-.41,1.98-.61,3.12-.61.27,0,.58.01.96.04.37.03.75.07,1.15.12.39.05.77.12,1.13.19.36.08.65.16.88.25l-.47,3.94Z"/>
      <path class="cls-1" d="M126.94,34.03c1.01-.12,1.95-.3,2.82-.55.87-.25,1.66-.55,2.35-.9s1.29-.75,1.79-1.2c.5-.45.87-.92,1.11-1.43-.44.09-.9.16-1.39.21-.49.05-.9.07-1.23.07-1.45,0-2.68-.21-3.69-.64-1.01-.43-1.84-.98-2.48-1.66-.64-.68-1.1-1.43-1.39-2.26-.29-.83-.43-1.63-.43-2.42,0-1.13.21-2.18.63-3.15s1-1.8,1.75-2.5c.74-.7,1.61-1.25,2.6-1.65.99-.4,2.06-.6,3.21-.6.51,0,1.04.05,1.6.14.56.09,1.1.26,1.63.5s1.04.56,1.52.96c.48.4.9.92,1.27,1.54.36.62.65,1.36.87,2.21.21.86.32,1.85.32,2.99v2.95c0,1.97-.32,3.61-.95,4.94-.63,1.32-1.51,2.41-2.65,3.26s-2.49,1.5-4.06,1.94c-1.57.45-3.3.76-5.19.95l-.42-3.7h.42ZM132.88,26.57c.21,0,.43-.01.65-.03s.45-.05.66-.09c.21-.03.42-.07.61-.12.19-.05.35-.1.48-.16v-1.46c0-1.19-.1-2.16-.29-2.91-.19-.75-.44-1.33-.75-1.75-.31-.42-.66-.71-1.05-.86s-.79-.23-1.2-.23c-.44,0-.86.09-1.27.28-.41.18-.76.45-1.08.78-.31.34-.56.74-.75,1.21-.19.47-.28.99-.28,1.55s.09,1.07.26,1.54.43.87.78,1.2c.35.33.79.59,1.32.77.53.19,1.16.28,1.89.28Z"/>
      <path class="cls-1" d="M166.09,30.01c0-.25-.06-.51-.18-.76-.12-.25-.28-.5-.49-.75-.2-.24-.43-.47-.69-.69-.25-.22-.51-.43-.76-.64-.42-.32-.84-.67-1.28-1.05-.43-.38-.83-.78-1.17-1.22-.35-.44-.63-.91-.86-1.41-.23-.5-.34-1.03-.34-1.6,0-1.08.23-1.99.7-2.74.47-.75,1.07-1.36,1.8-1.83.73-.47,1.53-.81,2.41-1.02s1.73-.32,2.55-.32c.59,0,1.17.05,1.73.14.56.09,1.06.2,1.5.31.52.13,1.01.27,1.46.43l-1.02,3.91c-.44-.2-.88-.38-1.32-.54-.37-.13-.78-.25-1.21-.36-.44-.12-.84-.17-1.21-.17-.3,0-.62.03-.96.1-.33.07-.65.18-.94.34-.29.16-.53.36-.72.62-.19.26-.29.59-.29.98,0,.23.07.47.21.72.14.25.32.49.54.74.22.24.47.48.74.72.27.24.54.46.79.67.39.31.8.66,1.22,1.03.42.38.81.77,1.15,1.17.35.41.63.82.86,1.26.23.43.34.87.34,1.29,0,.65-.12,1.31-.36,1.99-.24.68-.58,1.33-1.03,1.95-.45.62-1.01,1.21-1.67,1.77-.66.55-1.41,1.04-2.26,1.46-.85.42-1.79.74-2.81.98-1.02.24-2.13.36-3.31.36-1.58,0-2.99-.15-4.23-.44s-2.31-.69-3.23-1.18c-.92-.49-1.7-1.06-2.34-1.71-.64-.65-1.16-1.33-1.55-2.04-.39-.71-.68-1.43-.85-2.17-.17-.73-.26-1.43-.26-2.09,0-1.3.23-2.57.69-3.83s1.07-2.38,1.82-3.38l3.65,2c-.57.71-.98,1.49-1.25,2.36-.27.87-.4,1.72-.4,2.57s.15,1.62.46,2.35c.31.74.78,1.37,1.43,1.92.65.54,1.47.97,2.47,1.28,1,.31,2.19.47,3.56.47.94,0,1.82-.1,2.66-.3s1.57-.48,2.19-.84,1.12-.78,1.49-1.26c.37-.48.55-.99.55-1.54Z"/>
      <path class="cls-1" d="M173.83,30.18v-3.8h6.66c.69,0,1.26-.05,1.69-.16.43-.1.77-.25,1-.44.23-.19.39-.42.47-.69.08-.27.12-.55.12-.87,0-.56-.17-1.16-.5-1.8-.34-.65-.78-1.3-1.33-1.97-.55-.66-1.17-1.32-1.86-1.98-.69-.65-1.39-1.26-2.09-1.83l3.26-3.19c2.26,1.86,3.97,3.68,5.16,5.44,1.18,1.76,1.77,3.44,1.77,5.02,0,.57-.06,1.12-.19,1.67.59.28,1.23.48,1.92.61.69.13,1.41.19,2.16.19h.14c.32,0,.58.02.76.07.19.05.32.12.41.23.09.1.14.23.16.39s.03.34.03.56v1.21c0,.3-.02.54-.05.71-.03.17-.1.31-.21.4-.1.09-.24.15-.42.18-.17.03-.4.04-.68.04h-.19c-1.31,0-2.41-.17-3.32-.5-.9-.34-1.67-.78-2.31-1.32-.62.57-1.43,1.01-2.4,1.34s-2.17.49-3.58.49h-6.58Z"/>
      <path class="cls-1" d="M198.13,26.38c.32,0,.58.02.76.07.19.05.32.12.41.23.09.1.14.23.16.39s.03.34.03.56v1.21c0,.3-.02.54-.05.71-.03.17-.1.31-.21.4-.1.09-.24.15-.42.18-.17.03-.4.04-.68.04h-6.58c-.28,0-.5-.01-.68-.04-.17-.03-.31-.09-.42-.18-.1-.09-.17-.22-.21-.4-.04-.17-.05-.41-.05-.71v-1.21c0-.22,0-.41.03-.56s.07-.29.16-.39c.09-.1.22-.18.4-.23.18-.04.44-.07.77-.07h6.58Z"/>
      <path class="cls-1" d="M210.18,30.37c-.82,0-1.55-.07-2.2-.21-.64-.14-1.22-.32-1.74-.55s-.97-.48-1.35-.76-.74-.56-1.05-.84c-1.02,1.45-2.51,2.17-4.48,2.17h-1.37c-.28,0-.5-.01-.68-.04-.17-.03-.31-.09-.42-.18-.1-.09-.17-.22-.21-.4s-.05-.41-.05-.71v-1.21c0-.22,0-.41.03-.56.02-.16.07-.29.16-.39.09-.1.22-.18.4-.23.18-.04.44-.07.77-.07h.83c.57,0,1.06-.15,1.49-.45.43-.3.74-.77.94-1.41.57-1.89,1.21-3.41,1.94-4.57.73-1.16,1.48-2.06,2.26-2.69.77-.63,1.54-1.05,2.28-1.27s1.42-.32,2.02-.32c.86,0,1.64.11,2.34.34.71.23,1.34.53,1.9.91.56.38,1.05.83,1.46,1.34.41.51.75,1.05,1.02,1.62.27.57.47,1.16.61,1.77.13.61.2,1.2.2,1.76,0,.9-.16,1.77-.47,2.6-.31.83-.77,1.57-1.37,2.22s-1.34,1.17-2.23,1.55c-.89.39-1.9.58-3.05.58ZM213.09,23.36c0-.41-.08-.84-.23-1.31s-.38-.91-.68-1.31c-.3-.41-.67-.74-1.12-1.02s-.96-.41-1.54-.41-1.07.17-1.54.51c-.47.34-.88.79-1.25,1.35s-.68,1.19-.96,1.91c-.27.72-.48,1.45-.63,2.2.15.15.38.31.69.47.31.16.67.31,1.06.44.39.13.8.24,1.22.33.42.09.83.13,1.21.13.57,0,1.08-.06,1.54-.18.46-.12.86-.31,1.19-.57.33-.26.58-.6.75-1.02.17-.42.26-.92.26-1.53Z"/>
      <path class="cls-1" d="M224,33.5c1.01-.2,1.82-.45,2.45-.75s1.11-.67,1.45-1.12c.34-.45.57-.97.69-1.58s.18-1.32.18-2.13v-11.98h4.51v10.43h3.49c.32,0,.58.02.76.07.19.05.32.12.41.23.09.1.14.23.16.39s.03.34.03.56v1.21c0,.3-.02.54-.05.71-.03.17-.1.31-.21.4-.1.09-.24.15-.42.18-.17.03-.4.04-.68.04h-3.73c-.18,1.11-.49,2.07-.91,2.88-.42.81-.98,1.5-1.67,2.06-.69.57-1.52,1.03-2.49,1.39-.97.36-2.09.64-3.38.83l-.59-3.85Z"/>
      <path class="cls-1" d="M242.7,26.38c.32,0,.58.02.76.07.19.05.32.12.41.23.09.1.14.23.16.39s.03.34.03.56v1.21c0,.3-.02.54-.05.71-.03.17-.1.31-.21.4-.1.09-.24.15-.42.18-.17.03-.4.04-.68.04h-6.58c-.28,0-.5-.01-.68-.04-.17-.03-.31-.09-.42-.18-.1-.09-.17-.22-.21-.4-.04-.17-.05-.41-.05-.71v-1.21c0-.22,0-.41.03-.56s.07-.29.16-.39c.09-.1.22-.18.4-.23.18-.04.44-.07.77-.07h6.58Z"/>
      <path class="cls-1" d="M251.17,24.47c0,.21,0,.41-.03.62-.02.2-.04.4-.06.6.57.23,1.18.41,1.83.52.65.12,1.33.17,2.04.17h.14c.32,0,.58.02.76.07.18.05.32.12.41.23.09.1.14.23.16.39.02.16.03.34.03.56v1.21c0,.3-.02.54-.05.71s-.1.31-.21.4c-.1.09-.24.15-.42.18-.17.03-.4.04-.68.04h-.19c-1.16,0-2.14-.13-2.96-.39-.82-.26-1.53-.61-2.16-1.03-.4.44-.91.79-1.51,1.04-.6.26-1.34.38-2.21.38h-3.51c-.28,0-.5-.01-.68-.04-.17-.03-.31-.09-.42-.18-.1-.09-.17-.22-.21-.4s-.05-.41-.05-.71v-1.21c0-.22,0-.41.03-.56.02-.16.07-.29.16-.39.09-.1.22-.18.4-.23.18-.04.44-.07.77-.07h1.96c.38,0,.71-.04.98-.12s.49-.22.66-.41c.17-.19.29-.45.37-.77.08-.32.12-.73.12-1.21v-7.9h4.51v8.5ZM246.72,35.16c0-.31.06-.6.17-.87.12-.27.27-.5.48-.7.2-.2.44-.36.7-.48.27-.12.56-.17.87-.17s.6.06.87.17c.27.12.5.27.7.48.2.2.36.44.48.7.12.27.17.55.17.87s-.06.6-.17.87c-.12.27-.28.5-.48.7-.2.2-.44.36-.7.48-.27.12-.55.17-.87.17s-.6-.06-.87-.17c-.27-.12-.5-.27-.7-.48-.2-.2-.36-.44-.48-.7-.12-.27-.17-.55-.17-.87Z"/>
      <path class="cls-1" d="M263.57,24.47c0,.21,0,.41-.03.62-.02.2-.04.4-.06.6.57.23,1.18.41,1.83.52.65.12,1.33.17,2.04.17h.14c.32,0,.58.02.76.07.18.05.32.12.41.23.09.1.14.23.16.39.02.16.03.34.03.56v1.21c0,.3-.02.54-.05.71s-.1.31-.21.4c-.1.09-.24.15-.42.18-.17.03-.4.04-.68.04h-.19c-1.16,0-2.14-.13-2.96-.39-.82-.26-1.53-.61-2.16-1.03-.4.44-.91.79-1.51,1.04-.6.26-1.34.38-2.21.38h-3.51c-.28,0-.5-.01-.68-.04-.17-.03-.31-.09-.42-.18-.1-.09-.17-.22-.21-.4s-.05-.41-.05-.71v-1.21c0-.22,0-.41.03-.56.02-.16.07-.29.16-.39.09-.1.22-.18.4-.23.18-.04.44-.07.77-.07h1.96c.38,0,.71-.04.98-.12s.49-.22.66-.41c.17-.19.29-.45.37-.77.08-.32.12-.73.12-1.21v-7.9h4.51v8.5ZM256.32,9.42c0-.31.06-.6.17-.87.12-.27.27-.5.48-.7s.44-.36.7-.48c.27-.12.56-.17.87-.17s.6.06.87.17c.27.12.5.27.7.48.2.2.36.44.48.7.12.27.17.55.17.87s-.06.6-.17.87c-.12.27-.28.5-.48.7s-.44.36-.7.48c-.27.12-.55.17-.87.17s-.6-.06-.87-.17c-.27-.12-.5-.28-.7-.48-.2-.2-.36-.44-.48-.7-.12-.27-.17-.56-.17-.87ZM261.53,9.42c0-.31.06-.6.17-.87.12-.27.28-.5.48-.7.2-.2.44-.36.7-.48.27-.12.56-.17.87-.17s.6.06.87.17c.27.12.5.27.7.48.2.2.36.44.48.7.12.27.17.55.17.87s-.06.6-.17.87c-.12.27-.27.5-.48.7-.2.2-.44.36-.7.48-.27.12-.56.17-.87.17s-.6-.06-.87-.17c-.27-.12-.5-.28-.7-.48s-.36-.44-.48-.7c-.12-.27-.17-.56-.17-.87Z"/>
      <path class="cls-1" d="M270,15.88c.81-.23,1.62-.44,2.44-.62.82-.19,1.73-.28,2.73-.28s1.9.15,2.68.44c.78.3,1.45.71,2,1.23.55.53,1,1.15,1.34,1.88.34.73.58,1.53.72,2.4.1.72.21,1.4.33,2.06.12.65.27,1.23.45,1.74.19.5.42.91.7,1.21s.64.45,1.08.45v3.8h-17.11c-.28,0-.5-.01-.68-.04-.17-.03-.31-.09-.42-.18-.1-.09-.17-.22-.21-.4s-.05-.41-.05-.71v-1.21c0-.22,0-.41.03-.56.02-.16.07-.29.16-.39.09-.1.22-.18.4-.23.18-.04.44-.07.77-.07h11.42c-.22-.38-.38-.76-.49-1.15-.1-.38-.19-.79-.26-1.23-.09-.65-.21-1.3-.34-1.94-.13-.65-.33-1.23-.6-1.74-.27-.51-.62-.93-1.06-1.26-.44-.32-1.02-.49-1.74-.49-.49,0-1.11.06-1.88.19s-1.58.36-2.44.69v-3.57ZM272.62,9.42c0-.31.06-.6.17-.87.12-.27.27-.5.48-.7.2-.2.44-.36.7-.48.27-.12.56-.17.87-.17s.6.06.87.17c.27.12.5.27.7.48.2.2.36.44.48.7.12.27.17.55.17.87s-.06.6-.17.87c-.12.27-.28.5-.48.7s-.44.36-.7.48c-.27.12-.55.17-.87.17s-.6-.06-.87-.17-.5-.28-.7-.48c-.2-.2-.36-.44-.48-.7-.12-.27-.17-.56-.17-.87Z"/>
      <path class="cls-1" d="M287.42,5.26h4.51v24.94h-4.51V5.26Z"/>
      <path class="cls-1" d="M15.33,79.96c0,.42.02.76.06,1.03.04.27.12.49.24.66.12.17.29.29.5.36s.5.1.86.1h1.25c.32,0,.58.02.76.07.19.05.32.12.41.23s.14.23.16.39.03.34.03.56v1.21c0,.3-.02.54-.05.71-.03.17-.1.31-.21.4s-.24.15-.42.18c-.17.03-.4.04-.68.04h-2.03c-.79,0-1.46-.06-2.03-.18-.57-.12-1.05-.28-1.45-.49s-.73-.44-.98-.71c-.25-.27-.46-.56-.61-.88-.75.39-1.48.67-2.19.83-.71.16-1.45.24-2.22.24s-1.56-.11-2.36-.32c-.8-.21-1.52-.55-2.17-1-.65-.45-1.18-1.03-1.59-1.74-.41-.71-.62-1.56-.62-2.56,0-.88.17-1.67.52-2.39.35-.71.81-1.35,1.4-1.92.58-.57,1.25-1.07,2-1.51s1.52-.82,2.33-1.15c.8-.33,1.61-.61,2.4-.84.8-.23,1.53-.43,2.2-.59v-1.96h4.48v11.21ZM10.85,74.23c-1,.21-1.89.45-2.69.74-.8.28-1.48.61-2.06.97-.57.36-1.01.78-1.32,1.23s-.46.96-.46,1.52c0,.45.09.83.27,1.15.18.31.41.56.69.75.28.19.6.33.96.41s.72.12,1.08.12c.66,0,1.3-.09,1.91-.28.61-.19,1.15-.43,1.61-.73v-5.88ZM5.4,64.25c0-.31.06-.6.17-.87.12-.27.27-.5.48-.7.2-.2.44-.36.7-.48.27-.12.56-.17.87-.17s.6.06.87.17c.27.12.5.27.7.48.2.2.36.44.48.7.12.27.17.56.17.87s-.06.6-.17.87c-.12.27-.27.5-.48.7-.2.2-.44.36-.7.48-.27.12-.56.17-.87.17s-.6-.06-.87-.17c-.27-.12-.5-.27-.7-.48-.2-.2-.36-.44-.48-.7-.12-.27-.17-.55-.17-.87ZM10.61,64.25c0-.31.06-.6.17-.87.12-.27.27-.5.48-.7.2-.2.44-.36.7-.48.27-.12.56-.17.87-.17s.6.06.87.17.5.27.7.48.36.44.48.7c.12.27.17.56.17.87s-.06.6-.17.87c-.12.27-.28.5-.48.7s-.44.36-.7.48c-.27.12-.56.17-.87.17s-.6-.06-.87-.17c-.27-.12-.5-.27-.7-.48-.2-.2-.36-.44-.48-.7-.12-.27-.17-.55-.17-.87Z"/>
      <path class="cls-1" d="M24.16,82.11c.32,0,.58.02.76.07.19.05.32.12.41.23s.14.23.16.39.03.34.03.56v1.21c0,.3-.02.54-.05.71-.03.17-.1.31-.21.4-.1.09-.24.15-.42.18-.17.03-.4.04-.68.04h-6.58c-.28,0-.5-.01-.68-.04-.17-.03-.31-.09-.42-.18-.1-.09-.17-.23-.21-.4-.04-.17-.05-.41-.05-.71v-1.21c0-.22,0-.41.03-.56s.07-.29.16-.39.22-.18.4-.23c.18-.05.44-.07.77-.07h6.58Z"/>
      <path class="cls-1" d="M30.08,82.11c.32,0,.58.02.76.07.19.05.32.12.41.23s.14.23.16.39.03.34.03.56v1.21c0,.3-.02.54-.05.71-.03.17-.1.31-.21.4-.1.09-.24.15-.42.18-.17.03-.4.04-.68.04h-6.58c-.28,0-.5-.01-.68-.04-.17-.03-.31-.09-.42-.18-.1-.09-.17-.23-.21-.4-.04-.17-.05-.41-.05-.71v-1.21c0-.22,0-.41.03-.56s.07-.29.16-.39.22-.18.4-.23c.18-.05.44-.07.77-.07h6.58Z"/>
      <path class="cls-1" d="M36,82.11c.32,0,.58.02.76.07.19.05.32.12.41.23s.14.23.16.39.03.34.03.56v1.21c0,.3-.02.54-.05.71-.03.17-.1.31-.21.4-.1.09-.24.15-.42.18-.17.03-.4.04-.68.04h-6.58c-.28,0-.5-.01-.68-.04-.17-.03-.31-.09-.42-.18-.1-.09-.17-.23-.21-.4-.04-.17-.05-.41-.05-.71v-1.21c0-.22,0-.41.03-.56s.07-.29.16-.39.22-.18.4-.23c.18-.05.44-.07.77-.07h6.58Z"/>
      <path class="cls-1" d="M41.92,82.11c.32,0,.58.02.76.07.19.05.32.12.41.23s.14.23.16.39.03.34.03.56v1.21c0,.3-.02.54-.05.71-.03.17-.1.31-.21.4-.1.09-.24.15-.42.18-.17.03-.4.04-.68.04h-6.58c-.28,0-.5-.01-.68-.04-.17-.03-.31-.09-.42-.18-.1-.09-.17-.23-.21-.4-.04-.17-.05-.41-.05-.71v-1.21c0-.22,0-.41.03-.56s.07-.29.16-.39.22-.18.4-.23c.18-.05.44-.07.77-.07h6.58Z"/>
      <path class="cls-1" d="M41.78,85.91c-.28,0-.5-.01-.68-.04-.17-.03-.31-.09-.42-.18-.1-.09-.17-.23-.21-.4-.04-.17-.05-.41-.05-.71v-1.21c0-.22,0-.41.03-.56.02-.16.07-.29.16-.39s.22-.18.4-.23c.18-.05.44-.07.77-.07h4.44v-10.43h4.51v14.23h-8.96ZM42.98,90.89c0-.31.06-.6.17-.87.12-.27.27-.5.48-.7.2-.2.44-.36.7-.48.27-.12.56-.17.87-.17s.6.06.87.17c.27.12.5.28.7.48s.36.44.48.7c.12.27.17.56.17.87s-.06.6-.17.87c-.12.27-.28.5-.48.7-.2.2-.44.36-.7.48-.27.12-.56.17-.87.17s-.6-.06-.87-.17c-.27-.12-.5-.28-.7-.48s-.36-.44-.48-.7c-.12-.27-.17-.56-.17-.87ZM48.18,90.89c0-.31.06-.6.17-.87.12-.27.28-.5.48-.7s.44-.36.7-.48c.27-.12.56-.17.87-.17s.6.06.87.17c.27.12.5.28.7.48.2.2.36.44.48.7.12.27.17.56.17.87s-.06.6-.17.87c-.12.27-.28.5-.48.7-.2.2-.44.36-.7.48-.27.12-.56.17-.87.17s-.6-.06-.87-.17c-.27-.12-.5-.28-.7-.48-.2-.2-.36-.44-.48-.7-.12-.27-.17-.56-.17-.87Z"/>
      <path class="cls-1" d="M52.17,89.23c1.01-.2,1.82-.45,2.45-.75.62-.3,1.11-.67,1.46-1.12.35-.45.58-.97.7-1.58s.18-1.32.18-2.13v-11.98h4.51v11.07c0,1.68-.16,3.12-.49,4.31-.32,1.2-.84,2.2-1.54,3.01-.71.81-1.61,1.45-2.72,1.93-1.11.47-2.44.83-4,1.08l-.55-3.85Z"/>
      <path class="cls-1" d="M67.62,89.77c1.01-.12,1.95-.3,2.82-.55.87-.25,1.66-.55,2.35-.9.69-.35,1.29-.75,1.79-1.2.5-.45.87-.92,1.11-1.43-.44.09-.9.16-1.39.21-.49.05-.9.07-1.23.07-1.45,0-2.68-.21-3.69-.64-1.01-.43-1.84-.98-2.48-1.66-.64-.68-1.1-1.43-1.39-2.26-.29-.83-.43-1.63-.43-2.42,0-1.13.21-2.18.63-3.15.42-.97,1-1.8,1.75-2.5.74-.7,1.61-1.25,2.6-1.65.99-.4,2.06-.6,3.21-.6.51,0,1.04.05,1.6.14.56.09,1.1.26,1.63.5s1.04.56,1.52.96.9.92,1.27,1.54c.36.62.65,1.36.87,2.21.21.86.32,1.85.32,2.98v2.95c0,1.97-.32,3.61-.95,4.94-.63,1.32-1.51,2.41-2.65,3.26s-2.49,1.5-4.06,1.94c-1.57.45-3.3.76-5.19.95l-.42-3.7h.42ZM73.56,82.3c.21,0,.43-.01.65-.03s.45-.05.66-.09c.21-.03.42-.08.61-.12.19-.05.35-.1.48-.16v-1.46c0-1.19-.1-2.16-.29-2.91-.19-.75-.44-1.33-.75-1.75-.31-.42-.66-.71-1.05-.86s-.79-.23-1.2-.23c-.44,0-.86.09-1.27.28-.41.18-.76.45-1.08.78-.31.33-.56.74-.75,1.21-.19.47-.28.99-.28,1.55s.09,1.07.26,1.54.43.87.78,1.2c.35.33.79.59,1.32.77.53.19,1.16.28,1.89.28Z"/>
      <path class="cls-1" d="M81.54,89.23c1.01-.2,1.82-.45,2.45-.75s1.11-.67,1.45-1.12.57-.97.69-1.58.18-1.32.18-2.13v-11.98h4.51v10.43h3.49c.32,0,.58.02.76.07.19.05.32.12.41.23s.14.23.16.39.03.34.03.56v1.21c0,.3-.02.54-.05.71-.03.17-.1.31-.21.4s-.24.15-.42.18c-.17.03-.4.04-.68.04h-3.73c-.18,1.11-.49,2.07-.91,2.88-.42.81-.98,1.5-1.67,2.07-.69.57-1.52,1.03-2.49,1.39-.97.36-2.09.64-3.38.83l-.59-3.85Z"/>
      <path class="cls-1" d="M100.23,82.11c.32,0,.58.02.76.07.19.05.32.12.41.23s.14.23.16.39.03.34.03.56v1.21c0,.3-.02.54-.05.71-.03.17-.1.31-.21.4-.1.09-.24.15-.42.18-.17.03-.4.04-.68.04h-6.58c-.28,0-.5-.01-.68-.04-.17-.03-.31-.09-.42-.18-.1-.09-.17-.23-.21-.4-.04-.17-.05-.41-.05-.71v-1.21c0-.22,0-.41.03-.56s.07-.29.16-.39.22-.18.4-.23c.18-.05.44-.07.77-.07h6.58Z"/>
      <path class="cls-1" d="M106.15,82.11c.32,0,.58.02.76.07.19.05.32.12.41.23s.14.23.16.39.03.34.03.56v1.21c0,.3-.02.54-.05.71-.03.17-.1.31-.21.4-.1.09-.24.15-.42.18-.17.03-.4.04-.68.04h-6.58c-.28,0-.5-.01-.68-.04-.17-.03-.31-.09-.42-.18-.1-.09-.17-.23-.21-.4-.04-.17-.05-.41-.05-.71v-1.21c0-.22,0-.41.03-.56s.07-.29.16-.39.22-.18.4-.23c.18-.05.44-.07.77-.07h6.58Z"/>
      <path class="cls-1" d="M112.07,82.11c.32,0,.58.02.76.07.19.05.32.12.41.23s.14.23.16.39.03.34.03.56v1.21c0,.3-.02.54-.05.71-.03.17-.1.31-.21.4-.1.09-.24.15-.42.18-.17.03-.4.04-.68.04h-6.58c-.28,0-.5-.01-.68-.04-.17-.03-.31-.09-.42-.18-.1-.09-.17-.23-.21-.4-.04-.17-.05-.41-.05-.71v-1.21c0-.22,0-.41.03-.56s.07-.29.16-.39.22-.18.4-.23c.18-.05.44-.07.77-.07h6.58Z"/>
      <path class="cls-1" d="M124.11,86.1c-.82,0-1.55-.07-2.2-.21-.64-.14-1.22-.32-1.74-.55s-.97-.48-1.35-.76c-.39-.28-.74-.56-1.05-.84-1.02,1.45-2.51,2.17-4.48,2.17h-1.37c-.28,0-.5-.01-.68-.04-.17-.03-.31-.09-.42-.18-.1-.09-.17-.23-.21-.4-.04-.17-.05-.41-.05-.71v-1.21c0-.22,0-.41.03-.56.02-.16.07-.29.16-.39s.22-.18.4-.23c.18-.05.44-.07.77-.07h.83c.57,0,1.06-.15,1.49-.45.43-.3.74-.77.94-1.41.57-1.89,1.21-3.41,1.94-4.57.73-1.16,1.48-2.06,2.26-2.69.77-.63,1.54-1.05,2.28-1.27s1.42-.32,2.02-.32c.86,0,1.64.11,2.34.34.71.23,1.34.53,1.9.91.56.38,1.05.83,1.46,1.34s.75,1.05,1.02,1.62c.27.57.47,1.16.61,1.77.13.61.2,1.2.2,1.76,0,.34-.02.67-.07,1.01-.05.34-.12.67-.21.99.61.34,1.3.58,2.06.74.76.16,1.55.23,2.39.23h.14c.32,0,.58.02.76.07.19.05.32.12.41.23s.14.23.16.39.03.34.03.56v1.21c0,.3-.02.54-.05.71-.03.17-.1.31-.21.4s-.24.15-.42.18c-.17.03-.4.04-.68.04h-.19c-.69,0-1.33-.05-1.91-.15-.58-.1-1.11-.24-1.59-.42-.48-.19-.91-.4-1.3-.64s-.74-.51-1.07-.82c-.61.67-1.37,1.21-2.26,1.61-.89.41-1.93.61-3.11.61ZM127.03,79.09c0-.41-.08-.84-.23-1.31s-.38-.91-.68-1.31c-.3-.4-.67-.74-1.12-1.01-.45-.27-.96-.41-1.54-.41s-1.07.17-1.54.51c-.47.34-.88.79-1.25,1.34-.36.56-.68,1.19-.96,1.91-.27.72-.48,1.45-.63,2.2.15.15.38.31.69.47.31.16.67.31,1.06.44.39.13.8.24,1.22.33.42.09.83.13,1.21.13.57,0,1.08-.06,1.54-.18.46-.12.86-.31,1.19-.57.33-.26.58-.6.75-1.01.17-.42.26-.93.26-1.53Z"/>
      <path class="cls-1" d="M135.39,85.91c-.28,0-.5-.01-.68-.04-.17-.03-.31-.09-.42-.18-.1-.09-.17-.23-.21-.4-.04-.17-.05-.41-.05-.71v-1.21c0-.22,0-.41.03-.56.02-.16.07-.29.16-.39s.22-.18.4-.23c.18-.05.44-.07.77-.07h4.13v-21.14h4.51v24.94h-8.64Z"/>
      <path class="cls-1" d="M147.84,60.99h4.51v24.94h-4.51v-24.94Z"/>
      <path class="cls-1" d="M178.13,79.96c0,.42.02.76.06,1.03.04.27.12.49.24.66.12.17.29.29.5.36s.5.1.86.1h1.25c.32,0,.58.02.76.07.19.05.32.12.41.23s.14.23.16.39.03.34.03.56v1.21c0,.3-.02.54-.05.71-.03.17-.1.31-.21.4s-.24.15-.42.18c-.17.03-.4.04-.68.04h-2.03c-.79,0-1.46-.06-2.03-.18-.57-.12-1.05-.28-1.45-.49s-.73-.44-.98-.71c-.25-.27-.46-.56-.61-.88-.75.39-1.48.67-2.19.83-.71.16-1.45.24-2.22.24s-1.56-.11-2.36-.32c-.8-.21-1.52-.55-2.17-1-.65-.45-1.18-1.03-1.59-1.74-.41-.71-.62-1.56-.62-2.56,0-.88.17-1.67.52-2.39.35-.71.81-1.35,1.4-1.92.58-.57,1.25-1.07,2-1.51s1.52-.82,2.33-1.15c.8-.33,1.61-.61,2.4-.84.8-.23,1.53-.43,2.2-.59v-1.96h4.48v11.21ZM173.66,74.23c-1,.21-1.89.45-2.69.74-.8.28-1.48.61-2.06.97-.57.36-1.01.78-1.32,1.23s-.46.96-.46,1.52c0,.45.09.83.27,1.15.18.31.41.56.69.75.28.19.6.33.96.41s.72.12,1.08.12c.66,0,1.3-.09,1.91-.28.61-.19,1.15-.43,1.61-.73v-5.88ZM168.21,64.25c0-.31.06-.6.17-.87.12-.27.27-.5.48-.7.2-.2.44-.36.7-.48.27-.12.56-.17.87-.17s.6.06.87.17c.27.12.5.27.7.48.2.2.36.44.48.7.12.27.17.56.17.87s-.06.6-.17.87c-.12.27-.27.5-.48.7-.2.2-.44.36-.7.48-.27.12-.56.17-.87.17s-.6-.06-.87-.17c-.27-.12-.5-.27-.7-.48-.2-.2-.36-.44-.48-.7-.12-.27-.17-.55-.17-.87ZM173.41,64.25c0-.31.06-.6.17-.87.12-.27.27-.5.48-.7.2-.2.44-.36.7-.48.27-.12.56-.17.87-.17s.6.06.87.17.5.27.7.48.36.44.48.7c.12.27.17.56.17.87s-.06.6-.17.87c-.12.27-.28.5-.48.7s-.44.36-.7.48c-.27.12-.56.17-.87.17s-.6-.06-.87-.17c-.27-.12-.5-.27-.7-.48-.2-.2-.36-.44-.48-.7-.12-.27-.17-.55-.17-.87Z"/>
      <path class="cls-1" d="M193.09,86.1c-.82,0-1.55-.07-2.2-.21-.64-.14-1.22-.32-1.74-.55s-.97-.48-1.35-.76c-.39-.28-.74-.56-1.05-.84-1.02,1.45-2.51,2.17-4.48,2.17h-1.37c-.28,0-.5-.01-.68-.04-.17-.03-.31-.09-.42-.18-.1-.09-.17-.23-.21-.4-.04-.17-.05-.41-.05-.71v-1.21c0-.22,0-.41.03-.56.02-.16.07-.29.16-.39s.22-.18.4-.23c.18-.05.44-.07.77-.07h.83c.57,0,1.06-.15,1.49-.45.43-.3.74-.77.94-1.41.57-1.89,1.21-3.41,1.94-4.57.73-1.16,1.48-2.06,2.26-2.69.77-.63,1.54-1.05,2.28-1.27s1.42-.32,2.02-.32c.86,0,1.64.11,2.34.34.71.23,1.34.53,1.9.91.56.38,1.05.83,1.46,1.34s.75,1.05,1.02,1.62c.27.57.47,1.16.61,1.77.13.61.2,1.2.2,1.76,0,.9-.16,1.77-.47,2.6s-.77,1.57-1.37,2.22c-.6.65-1.34,1.17-2.23,1.55-.89.39-1.9.58-3.05.58ZM196.01,79.09c0-.41-.08-.84-.23-1.31s-.38-.91-.68-1.31c-.3-.4-.67-.74-1.12-1.01-.45-.27-.96-.41-1.54-.41s-1.07.17-1.54.51c-.47.34-.88.79-1.25,1.34-.36.56-.68,1.19-.96,1.91-.27.72-.48,1.45-.63,2.2.15.15.38.31.69.47.31.16.67.31,1.06.44.39.13.8.24,1.22.33.42.09.83.13,1.21.13.57,0,1.08-.06,1.54-.18.46-.12.86-.31,1.19-.57.33-.26.58-.6.75-1.01.17-.42.26-.93.26-1.53Z"/>
      <path class="cls-1" d="M225.41,80.2c0,.21,0,.41-.03.62-.02.2-.04.4-.06.6.57.23,1.18.41,1.83.52.65.12,1.33.17,2.04.17h.14c.32,0,.58.02.76.07.19.05.32.12.41.23s.14.23.16.39.03.34.03.56v1.21c0,.3-.02.54-.05.71-.03.17-.1.31-.21.4s-.24.15-.42.18c-.17.03-.4.04-.68.04h-.19c-1.16,0-2.14-.13-2.96-.39-.82-.26-1.54-.6-2.16-1.03-.4.44-.91.79-1.52,1.04-.61.25-1.34.38-2.21.38h-16.09v-3.8h7.55v-15.27h4.51v15.27h2.51c.38,0,.71-.04.98-.12.27-.08.49-.22.66-.41.17-.19.29-.45.37-.77.08-.32.12-.73.12-1.21v-18.67h4.51v19.28Z"/>
      <path class="cls-1" d="M252.7,82.11c.38,0,.71-.04.98-.12s.49-.22.66-.41c.17-.19.29-.45.37-.77.08-.32.12-.73.12-1.21v-7.9h4.51v8.5c0,.21,0,.41-.03.62-.02.2-.04.4-.06.6.57.23,1.18.41,1.83.52.65.12,1.33.17,2.04.17h.14c.32,0,.58.02.76.07.19.05.32.12.41.23s.14.23.16.39.03.34.03.56v1.21c0,.3-.02.54-.05.71-.03.17-.1.31-.21.4s-.24.15-.42.18c-.17.03-.4.04-.68.04h-.19c-1.16,0-2.14-.13-2.96-.39-.82-.26-1.54-.6-2.16-1.03-.4.44-.91.79-1.52,1.04-.61.25-1.34.38-2.21.38h-.76c-1.15,0-2.18-.16-3.1-.49-.92-.32-1.72-.75-2.4-1.27-.41.53-.93.96-1.57,1.28-.64.32-1.45.48-2.44.48h-.76c-1.16,0-2.2-.17-3.13-.49-.93-.33-1.74-.76-2.42-1.29-.4.54-.93.98-1.58,1.3-.65.32-1.46.49-2.45.49h-5.14c-.28,0-.5-.01-.68-.04-.17-.03-.31-.09-.42-.18-.1-.09-.17-.23-.21-.4-.04-.17-.05-.41-.05-.71v-1.21c0-.22,0-.41.03-.56.02-.16.07-.29.16-.39s.22-.18.4-.23c.18-.05.44-.07.77-.07h3.59c.38,0,.71-.04.98-.12.27-.08.49-.22.66-.41.17-.19.29-.45.37-.77.08-.32.12-.73.12-1.21v-4.46h4.51v5.48c0,.13-.01.27-.03.41.64.36,1.27.63,1.9.82.63.18,1.24.28,1.83.28.38,0,.71-.04.98-.12s.49-.22.66-.41c.17-.19.29-.45.38-.77.08-.32.12-.73.12-1.21v-6.02h4.51v6.63c0,.14,0,.28,0,.43s-.01.29-.03.42c.63.35,1.25.61,1.86.79.62.18,1.21.27,1.79.27Z"/>
      <path class="cls-1" d="M263.16,85.91c-.28,0-.5-.01-.68-.04-.17-.03-.31-.09-.42-.18-.1-.09-.17-.23-.21-.4-.04-.17-.05-.41-.05-.71v-1.21c0-.22,0-.41.03-.56.02-.16.07-.29.16-.39s.22-.18.4-.23c.18-.05.44-.07.77-.07h4.13v-21.14h4.51v24.94h-8.64Z"/>
      <path class="cls-1" d="M275.6,60.99h4.51v18.21c0,.58.04,1.06.13,1.43s.21.67.38.89.38.37.64.46c.26.09.56.13.91.13h.85c.32,0,.58.02.76.07.18.05.32.12.41.23s.14.23.16.39.03.34.03.56v1.21c0,.3-.02.54-.05.71-.03.17-.1.31-.21.4-.1.09-.24.15-.42.18-.17.03-.4.04-.68.04h-1.94c-.97,0-1.8-.14-2.49-.42-.69-.28-1.26-.67-1.7-1.17s-.77-1.11-.98-1.82c-.21-.71-.31-1.5-.31-2.35v-19.16Z"/>
      <path class="cls-1" d="M282.96,85.91c-.28,0-.5-.01-.68-.04-.17-.03-.31-.09-.42-.18-.1-.09-.17-.23-.21-.4-.04-.17-.05-.41-.05-.71v-1.21c0-.22,0-.41.03-.56.02-.16.07-.29.16-.39s.22-.18.4-.23c.18-.05.44-.07.77-.07h4.44v-10.43h4.51v14.23h-8.96ZM288.25,90.89c0-.31.06-.6.17-.87.12-.27.27-.5.48-.7.2-.2.44-.36.7-.48.27-.12.56-.17.87-.17s.6.06.87.17c.27.12.5.28.7.48.2.2.36.44.48.7.12.27.17.56.17.87s-.06.6-.17.87c-.12.27-.27.5-.48.7s-.44.36-.7.48c-.27.12-.56.17-.87.17s-.6-.06-.87-.17c-.27-.12-.5-.28-.7-.48s-.36-.44-.48-.7c-.12-.27-.17-.56-.17-.87Z"/>
    </g>
  </g>
</svg>