<?xml version="1.0" encoding="UTF-8"?>
<svg id="Layer_2" data-name="Layer 2" xmlns="http://www.w3.org/2000/svg" viewBox="0 0 260.25 227.06">
  <defs>
    <style>
      .cls-1 {
        fill: #e6e6e6;
      }

      .cls-1, .cls-2, .cls-3 {
        stroke-width: 0px;
      }

      .cls-2 {
        fill: #fff;
      }

      .cls-3 {
        fill: #bb4a42;
      }
    </style>
  </defs>
  <g id="Layer_1-2" data-name="Layer 1">
    <rect class="cls-1" width="260.25" height="227.06" rx="35.24" ry="35.24"/>
    <g>
      <polygon class="cls-3" points="96.92 193.68 49.97 146.73 49.97 80.33 96.92 33.38 163.32 33.38 210.27 80.33 210.27 146.73 163.32 193.68 96.92 193.68"/>
      <polygon class="cls-2" points="99.3 187.96 55.7 144.36 55.7 82.7 99.3 39.11 160.95 39.11 204.55 82.7 204.55 144.36 160.95 187.96 99.3 187.96"/>
      <polygon class="cls-3" points="101.67 182.23 61.43 141.99 61.43 85.08 101.67 44.83 158.58 44.83 198.82 85.08 198.82 141.99 158.58 182.23 101.67 182.23"/>
      <g>
        <path class="cls-2" d="M100.78,92.85h25.27v5.82h-9.24v35.54h-6.85v-35.54h-9.18v-5.82Z"/>
        <path class="cls-2" d="M157.56,113.52c0,7.07-1.26,12.41-3.79,16.03-2.53,3.62-6.19,5.42-11,5.42s-8.52-1.8-11.09-5.41c-2.57-3.61-3.85-8.95-3.85-16.04s1.27-12.36,3.82-15.98c2.54-3.63,6.24-5.44,11.09-5.44s8.45,1.8,11,5.41c2.54,3.61,3.82,8.94,3.82,16.01ZM150.38,113.53c0-4.91-.57-8.78-1.71-11.6-1.14-2.82-3.14-4.23-5.98-4.23s-4.84,1.42-5.97,4.25c-1.13,2.83-1.7,6.69-1.7,11.58s.56,8.65,1.67,11.52c1.11,2.87,3.14,4.31,6.09,4.31,2.77,0,4.73-1.39,5.88-4.17,1.15-2.78,1.73-6.67,1.73-11.66Z"/>
        <path class="cls-2" d="M164.1,92.85h10.24c3.27,0,5.93.31,7.97.92,2.04.62,3.76,1.98,5.15,4.09,1.39,2.11,2.09,4.65,2.09,7.62,0,2.73-.57,5.07-1.7,7.03-1.13,1.96-2.65,3.37-4.56,4.24-1.91.87-4.84,1.3-8.8,1.3h-3.54v16.15h-6.85v-41.36ZM170.95,98.16v14.42h3.39c3.03,0,5.13-.57,6.29-1.7,1.16-1.13,1.74-2.97,1.74-5.51,0-1.9-.38-3.44-1.15-4.62-.77-1.18-1.61-1.91-2.53-2.18-.92-.27-2.37-.41-4.35-.41h-3.39Z"/>
        <path class="cls-2" d="M97.46,116.77c-.94-1.63-2.17-2.92-3.68-3.89-1.51-.97-3.68-1.99-6.48-3.06-3.29-1.25-5.49-2.33-6.59-3.23-1.1-.9-1.65-2.11-1.65-3.63,0-1.38.49-2.6,1.47-3.66.98-1.06,2.37-1.6,4.17-1.6,1.94,0,3.47.52,4.59,1.57.74.69,1.39,1.63,1.94,2.83h6.62c-1.86-6.67-6.15-10-12.88-10-3.8,0-6.84,1.12-9.13,3.36-2.29,2.24-3.44,5.01-3.44,8.3,0,2.16.52,4.09,1.55,5.79,1.03,1.7,2.28,2.98,3.74,3.85,1.46.87,3.85,1.93,7.17,3.18,3.13,1.19,5.09,2.31,5.88,3.36.79,1.05,1.18,2.19,1.18,3.42,0,1.68-.57,3.09-1.71,4.23-1.14,1.14-2.81,1.71-5.01,1.71-3.96,0-6.6-1.97-7.9-5.91h-6.58c1.82,7.72,6.54,11.57,14.18,11.57,4.42,0,7.86-1.22,10.32-3.67,2.45-2.44,3.68-5.4,3.68-8.88,0-2.14-.47-4.02-1.41-5.65Z"/>
      </g>
    </g>
  </g>
</svg>