<?xml version="1.0" encoding="UTF-8"?>
<svg id="Layer_2" data-name="Layer 2" xmlns="http://www.w3.org/2000/svg" viewBox="0 0 260.25 227.06">
  <defs>
    <style>
      .cls-1 {
        fill: #d7a036;
      }

      .cls-1, .cls-2 {
        stroke-width: 0px;
      }

      .cls-2 {
        fill: #fff;
      }
    </style>
  </defs>
  <g id="Layer_1-2" data-name="Layer 1">
    <rect class="cls-2" width="260.25" height="227.06" rx="35.24" ry="35.24"/>
    <path class="cls-2" d="M123.47,135.58l-3.95-37.85c-.59-5.63,3.83-10.53,9.49-10.53h.21c5.66,0,10.07,4.9,9.49,10.52l-3.92,37.85c-.3,2.88-2.72,5.06-5.61,5.06h-.1c-2.89,0-5.31-2.18-5.61-5.06ZM120.37,154.71v-.18c0-4.81,3.9-8.71,8.71-8.71h.18c4.81,0,8.71,3.9,8.71,8.71v.18c0,4.81-3.9,8.71-8.71,8.71h-.18c-4.81,0-8.71-3.9-8.71-8.71Z"/>
    <g>
      <circle class="cls-1" cx="130.12" cy="113.53" r="79.35"/>
      <path class="cls-2" d="M83.14,134.26c-4.49-1.33-9.29,1.16-10.79,5.6-1.59,4.71,1.04,9.8,5.82,11.21,4.49,1.33,9.28-1.16,10.79-5.6,1.59-4.71-1.04-9.8-5.82-11.21ZM84.5,143.9c-.68,2.11-2.96,3.28-5.07,2.61-2.12-.67-3.29-2.95-2.61-5.07.68-2.11,2.96-3.28,5.07-2.61,2.12.68,3.29,2.96,2.61,5.07ZM105.55,120.43l-19.94.07-14.38-14.54c-.51-.52-1.21-.81-1.95-.81h-18.07c-.1.91-.18,1.82-.24,2.75h10.29c.54,0,1.03.26,1.34.7l8.32,11.95h-19.84c.67,7.7,2.44,15.08,5.16,21.99h13.15c.1-6.11,5.07-11.14,11.22-11.16,6.22-.02,11.3,5.01,11.32,11.23.63.01.99.01.99.01,0,0,11.4,1.71,13.79-3.78,2.4-5.5,2.13-17.32-1.16-18.41ZM178.94,134.26c-4.49-1.33-9.28,1.16-10.79,5.6-1.59,4.71,1.04,9.8,5.82,11.21,4.49,1.33,9.28-1.16,10.79-5.6,1.59-4.71-1.04-9.8-5.82-11.21ZM180.31,143.9c-.68,2.11-2.96,3.28-5.07,2.61-2.12-.67-3.29-2.95-2.61-5.07.68-2.11,2.96-3.28,5.07-2.61,2.12.68,3.29,2.96,2.61,5.07ZM197.32,108.43c.4-.34.91-.54,1.43-.54h10.53c-.06-.92-.14-1.83-.24-2.75h-11.01c-.64,0-1.26.22-1.75.63l-17.81,14.78s-24.54.1-25.85,3.39c-1.21,3.06-4.8,17.59,12.46,18.94.02-6.19,5.04-11.22,11.24-11.24,6.12-.02,11.08,4.83,11.29,10.89h16.4c2.72-6.91,4.49-14.29,5.16-21.99h-25.87l14.02-12.11ZM157.06,79.12c.32.8.48,1.8.48,2.99v12.19h-2.39v-12.19c0-1.05-.24-1.84-.71-2.36-.47-.52-1.19-.78-2.16-.78-.8,0-1.39.29-1.79.86-.39.58-.59,1.45-.59,2.61v11.86h-2.39v-12.19c0-1.05-.2-1.84-.59-2.36-.39-.52-.99-.78-1.79-.78-.97,0-1.69.29-2.16.86-.47.58-.71,1.45-.71,2.61v11.86h-2.39v-17.26h2.39v2.11c.35-.68.78-1.22,1.28-1.61.69-.53,1.51-.8,2.47-.8.86,0,1.58.2,2.16.59.58.39,1.01.99,1.3,1.79.02.07.04.14.07.2.29-.69.68-1.25,1.16-1.67.7-.6,1.52-.91,2.46-.91s1.8.2,2.45.59c.65.41,1.13,1,1.45,1.8ZM123.87,69.96c-1.69,0-3,.47-3.93,1.43s-1.39,2.3-1.39,4.03v13.42c0,1.74.46,3.08,1.39,4.03.93.95,2.24,1.43,3.93,1.43s3-.47,3.93-1.43c.93-.95,1.39-2.3,1.39-4.03v-13.42c0-1.74-.47-3.08-1.39-4.03-.92-.95-2.23-1.43-3.93-1.43ZM126.84,88.84c0,1.04-.26,1.84-.78,2.41-.52.57-1.25.86-2.19.86s-1.67-.28-2.19-.86c-.52-.57-.78-1.37-.78-2.41v-13.42c0-1.04.26-1.84.78-2.41.52-.57,1.25-.86,2.19-.86s1.67.28,2.19.86c.52.57.78,1.37.78,2.41v13.42ZM102.7,70.45h10.52v2.2l-5.35,21.65h-2.49l5.51-21.65h-5.82v3.59h-2.36v-5.79Z"/>
    </g>
    <polygon class="cls-2" points="147.56 167.66 147.61 162.73 130.28 162.56 130.12 162.56 112.64 162.73 112.69 167.66 92.54 159.73 112.53 151.43 112.59 157.14 127.3 157.01 130.12 156.98 132.94 157.01 147.65 157.14 147.7 151.43 167.7 159.73 147.56 167.66"/>
  </g>
</svg>