<?xml version="1.0" encoding="UTF-8"?>
<svg id="Layer_2" data-name="Layer 2" xmlns="http://www.w3.org/2000/svg" viewBox="0 0 260.25 227.06">
  <defs>
    <style>
      .cls-1 {
        stroke: #bb4a42;
        stroke-miterlimit: 10;
        stroke-width: 1.1px;
      }

      .cls-1, .cls-2 {
        fill: #fff;
      }

      .cls-2, .cls-3 {
        stroke-width: 0px;
      }

      .cls-3 {
        fill: #bb4a42;
      }
    </style>
  </defs>
  <g id="Layer_1-2" data-name="Layer 1">
    <rect class="cls-2" width="260.25" height="227.06" rx="35.24" ry="35.24"/>
    <g>
      <circle class="cls-3" cx="128.93" cy="115.06" r="83.8"/>
      <g>
        <path class="cls-1" d="M157.16,164.4h-57.02v-6.52l-4.94,4.94v6.92c0,4.96,4.03,8.99,8.99,8.99h48.91c4.96,0,8.99-4.02,8.99-8.99v-73.81l-4.94,4.94v63.54ZM128.65,176.83c-2.93,0-5.31-2.38-5.31-5.31s2.38-5.31,5.31-5.31,5.31,2.37,5.31,5.31-2.38,5.31-5.31,5.31Z"/>
        <path class="cls-1" d="M153.11,51.28h-48.91c-4.96,0-8.99,4.02-8.99,8.99v73.81l4.94-4.94v-62.47h57.02v5.45l4.94-4.94v-6.92c0-4.96-4.03-8.99-8.99-8.99ZM141.3,59.95c0,.26-.21.47-.47.47h-24.35c-.26,0-.47-.21-.47-.47v-1.96c0-.26.21-.47.47-.47h24.35c.26,0,.47.21.47.47v1.96Z"/>
        <path class="cls-2" d="M190.07,53.58c-16.41-16.41-38.22-25.44-61.42-25.44s-45.01,9.04-61.42,25.44c-16.41,16.41-25.44,38.22-25.44,61.42s9.04,45.01,25.44,61.42c16.41,16.41,38.22,25.44,61.42,25.44s45.01-9.04,61.42-25.44c16.41-16.41,25.44-38.22,25.44-61.42s-9.04-45.01-25.44-61.42ZM73.38,59.73c15.24-15.24,35.26-22.86,55.27-22.86,18.66,0,37.32,6.63,52.11,19.87l-110.37,110.37c-27.45-30.65-26.46-77.94,2.99-107.39ZM183.93,170.28c-29.45,29.45-76.73,30.44-107.39,2.99l110.37-110.37c27.45,30.65,26.46,77.94-2.99,107.39Z"/>
      </g>
    </g>
  </g>
</svg>